<?xml version="1.0" encoding="utf-8"?>
<!-- Generator: Adobe Illustrator 21.0.0, SVG Export Plug-In . SVG Version: 6.00 Build 0)  -->
<svg version="1.1" xmlns="http://www.w3.org/2000/svg" xmlns:xlink="http://www.w3.org/1999/xlink" x="0px" y="0px"
	 viewBox="0 0 36.2 39.5" style="enable-background:new 0 0 36.2 39.5;" xml:space="preserve">
<style type="text/css">
	.st0{fill:#FFFFFF;}
</style>
<g id="Layer_1">
</g>
<g id="Isolation_Mode">
	<g id="Logo_1_">
		<path class="st0" d="M22.7,1.7C21.5,0.6,19.8,0,18.1,0c-1.7,0-3.4,0.6-4.6,1.7c-1.4,1.2-2.1,3-2.1,5c0,2.1,0.7,3.8,2.1,5
			c1.2,1.1,2.8,1.7,4.6,1.7c1.7,0,3.4-0.6,4.6-1.7c1.4-1.2,2.1-2.9,2.1-5C24.8,4.6,24,2.9,22.7,1.7z M15.5,6.7
			c0-1.9,1.4-2.8,2.6-2.8c1.3,0,2.6,0.9,2.6,2.8c0,1.9-1.4,2.8-2.6,2.8C16.8,9.5,15.5,8.6,15.5,6.7z"/>
		<g>
			<path class="st0" d="M24.6,24.5c0-0.1,0-0.2,0.1-0.3l11.5-9.7l-4.6-5.2L21.4,19.6c-2.7,2.7-2.7,7.2,0,9.9l10,9.9l4.6-5.2
				l-11.3-9.4C24.6,24.8,24.6,24.7,24.6,24.5z"/>
			<path class="st0" d="M4.6,9.4L0,14.6l11.3,9.6c0.1,0.1,0.1,0.2,0.1,0.3c0,0.1,0,0.2-0.1,0.3l-11,9.4l4.6,5.2l9.9-10
				c1.3-1.3,2-3.1,2-5c0-1.9-0.7-3.6-2.1-4.9L4.6,9.4z"/>
		</g>
	</g>
</g>
</svg>
